<svg height="48" width="48" xmlns="http://www.w3.org/2000/svg" xmlns:xlink="http://www.w3.org/1999/xlink"><linearGradient id="a" gradientTransform="matrix(.9946067 0 0 1.3072212 1.6241 -7.05557)" gradientUnits="userSpaceOnUse" x1="21.862232" x2="21.862232" xlink:href="#c" y1="36.002472" y2="14.480453"/><linearGradient id="b"><stop offset="0" stop-color="#8e8e8e"/><stop offset="1" stop-color="#b5b5b5"/></linearGradient><linearGradient id="c" xlink:href="#b"/><linearGradient id="d" gradientTransform="scale(1.3991499 .71471968)" gradientUnits="userSpaceOnUse" x1="12.170802" x2="13.440255" xlink:href="#b" y1="18.318645" y2="18.318645"/><linearGradient id="e" gradientTransform="matrix(.9946067 0 0 1.3072212 1.6241 -7.240963)" gradientUnits="userSpaceOnUse" x1="21.862232" x2="21.862232" xlink:href="#c" y1="36.002472" y2="14.480453"/><linearGradient id="f" gradientTransform="scale(1.4654647 .68237742)" gradientUnits="userSpaceOnUse" x1="12.418125" x2="13.747747" xlink:href="#b" y1="16.255953" y2="16.255953"/><linearGradient id="g" gradientTransform="scale(2.173232 .46014415)" gradientUnits="userSpaceOnUse" x1="5.981874" x2="7.953656" xlink:href="#b" y1="58.865711" y2="58.865711"/><linearGradient id="h" gradientTransform="scale(1.5853237 .63078599)" gradientUnits="userSpaceOnUse" x1="19.499565" x2="20.937935" xlink:href="#b" y1="46.121342" y2="46.121342"/><linearGradient id="i" gradientTransform="matrix(.9946067 0 0 1.3072212 1.6241 -7.611748)" gradientUnits="userSpaceOnUse" x1="21.862232" x2="21.862232" xlink:href="#c" y1="36.002472" y2="14.480453"/><linearGradient id="j" gradientTransform="scale(2.0171754 .4957427)" gradientUnits="userSpaceOnUse" x1="6.444655" x2="8.274846" xlink:href="#b" y1="58.68507" y2="58.68507"/><linearGradient id="k" gradientTransform="scale(1.6079502 .62190981)" gradientUnits="userSpaceOnUse" x1="8.084827" x2="9.543727" xlink:href="#b" y1="37.131905" y2="37.131905"/><linearGradient id="l" gradientTransform="matrix(.9946067 0 0 1.3072212 1.6241 -7.426355)" gradientUnits="userSpaceOnUse" x1="21.862232" x2="21.862232" xlink:href="#c" y1="36.002472" y2="14.480453"/><linearGradient id="m" gradientTransform="matrix(.9946067 0 0 1.3072212 1.6241 -7.09489)" gradientUnits="userSpaceOnUse" x1="21.862232" x2="21.862232" xlink:href="#c" y1="36.002472" y2="14.480453"/><linearGradient id="n" gradientTransform="matrix(.9946067 0 0 1.3072212 1.6241 -7.465675)" gradientUnits="userSpaceOnUse" x1="21.862232" x2="21.862232" xlink:href="#c" y1="36.002472" y2="14.480453"/><linearGradient id="o" gradientTransform="matrix(.9946067 0 0 1.3072212 1.6241 -7.280283)" gradientUnits="userSpaceOnUse" x1="21.862232" x2="21.862232" xlink:href="#c" y1="36.002472" y2="14.480453"/><linearGradient id="p" gradientTransform="matrix(.9946067 0 0 1.3072212 1.6241 -7.651068)" gradientUnits="userSpaceOnUse" x1="21.862232" x2="21.862232" xlink:href="#c" y1="36.002472" y2="14.480453"/><linearGradient id="q" gradientTransform="matrix(.9946067 0 0 1.3072212 1.6241 -7.836462)" gradientUnits="userSpaceOnUse" x1="21.862232" x2="21.862232" xlink:href="#c" y1="36.002472" y2="14.480453"/><linearGradient id="r" gradientTransform="matrix(.9946067 0 0 1.3072212 1.6241 -8.17391)" gradientUnits="userSpaceOnUse" x1="21.862232" x2="21.862232" xlink:href="#c" y1="36.002472" y2="14.480453"/><linearGradient id="s" gradientTransform="matrix(.9946067 0 0 1.3072212 1.6241 -8.353319)" gradientUnits="userSpaceOnUse" x1="21.862232" x2="21.862232" xlink:href="#c" y1="36.002472" y2="14.480453"/><linearGradient id="t" gradientTransform="matrix(.9946067 0 0 1.3072212 1.6241 -7.982534)" gradientUnits="userSpaceOnUse" x1="21.862232" x2="21.862232" xlink:href="#c" y1="36.002472" y2="14.480453"/><linearGradient id="u" gradientTransform="matrix(.9946067 0 0 1.3072212 1.6241 -8.538712)" gradientUnits="userSpaceOnUse" x1="21.862232" x2="21.862232" xlink:href="#c" y1="36.002472" y2="14.480453"/><linearGradient id="v" gradientTransform="matrix(.4503686 .00027173 -.00027421 .446297 46.807779 -6.990905)" gradientUnits="userSpaceOnUse" x1="-60.969666" x2="-60.908253" y1="13.668072" y2="114.5354"><stop offset="0" stop-color="#f4f4f4"/><stop offset="1" stop-color="#dbdbdb"/></linearGradient><linearGradient id="w" gradientUnits="userSpaceOnUse" x1="11.536496" x2="11.536496" y1="45" y2="-.956463"><stop offset="0" stop-color="#a0a0a0"/><stop offset="1" stop-color="#c8c8c8"/></linearGradient><linearGradient id="x" gradientTransform="matrix(.6565695 -.659788 .7345237 .7308691 -1.012959 19.863185)" gradientUnits="userSpaceOnUse" spreadMethod="pad" x1="23.575972" x2="23.575972" y1="25.356892" y2="31.210939"><stop offset="0" stop-color="#181818"/><stop offset=".13482948" stop-color="#dbdbdb"/><stop offset=".20224422" stop-color="#a4a4a4"/><stop offset=".26965895" stop-color="#fff"/><stop offset=".44650277" stop-color="#8d8d8d"/><stop offset=".57114136" stop-color="#959595"/><stop offset=".72038066" stop-color="#cecece"/><stop offset="1" stop-color="#181818"/></linearGradient><linearGradient id="y" gradientTransform="matrix(.6380091 -.6411367 .8596262 .8553492 -3.419016 16.487099)" gradientUnits="userSpaceOnUse" x1="30.037716" x2="30.037716" xlink:href="#z" y1="24.989594" y2="30.000141"/><linearGradient id="z"><stop offset="0" stop-color="#565656"/><stop offset=".5" stop-color="#9a9a9a"/><stop offset="1" stop-color="#545454"/></linearGradient><linearGradient id="A" gradientTransform="matrix(.6380091 -.6411367 .8596262 .8553492 -3.601733 16.670712)" gradientUnits="userSpaceOnUse" x1="30.037716" x2="30.037716" xlink:href="#B" y1="24.989594" y2="30.000141"/><linearGradient id="B"><stop offset="0" stop-color="#b1b1b1"/><stop offset=".5" stop-color="#fff"/><stop offset="1" stop-color="#8f8f8f"/></linearGradient><linearGradient id="C" gradientTransform="matrix(.6380091 -.6411367 .8596262 .8553492 -2.784076 15.849046)" gradientUnits="userSpaceOnUse" x1="30.037716" x2="30.037716" xlink:href="#z" y1="24.989594" y2="30.000141"/><linearGradient id="D" gradientTransform="matrix(.6380091 -.6411367 .8596262 .8553492 -2.966794 16.032658)" gradientUnits="userSpaceOnUse" x1="30.037716" x2="30.037716" xlink:href="#B" y1="24.989594" y2="30.000141"/><linearGradient id="E" gradientTransform="matrix(.6380091 -.6411367 .8596262 .8553492 -2.146067 15.207909)" gradientUnits="userSpaceOnUse" x1="30.037716" x2="30.037716" xlink:href="#z" y1="24.989594" y2="30.000141"/><linearGradient id="F" gradientTransform="matrix(.6380091 -.6411367 .8596262 .8553492 -2.328784 15.391523)" gradientUnits="userSpaceOnUse" x1="30.037716" x2="30.037716" xlink:href="#B" y1="24.989594" y2="30.000141"/><linearGradient id="G" gradientTransform="matrix(.6380091 -.6411367 .8596263 .8553493 -3.661342 16.73061)" gradientUnits="userSpaceOnUse" x1="9" x2="9" y1="29.056757" y2="26.02973"><stop offset="0" stop-color="#ece5a5"/><stop offset="1" stop-color="#fcfbf2"/></linearGradient><linearGradient id="H" gradientTransform="matrix(.5603647 .02418622 .02415646 .5596736 19.546549 13.104104)" gradientUnits="userSpaceOnUse" x1="5.517898" x2="9.522056" y1="37.371799" y2="41.391716"><stop offset="0" stop-color="#dbce48"/><stop offset="1" stop-color="#c5b625"/></linearGradient><radialGradient id="I" cx="605.71429" cy="486.64789" gradientTransform="matrix(-.02289231 0 0 .01235294 21.646291 38.470849)" gradientUnits="userSpaceOnUse" r="117.14286" xlink:href="#J"/><linearGradient id="J"><stop offset="0"/><stop offset="1" stop-opacity="0"/></linearGradient><radialGradient id="K" cx="605.71429" cy="486.64789" gradientTransform="matrix(.02289231 0 0 .01235294 26.353705 38.470849)" gradientUnits="userSpaceOnUse" r="117.14286" xlink:href="#J"/><linearGradient id="L" gradientTransform="matrix(.06689349 0 0 .01235294 -.17722 38.470823)" gradientUnits="userSpaceOnUse" x1="302.85715" x2="302.85715" y1="366.64789" y2="609.50507"><stop offset="0" stop-opacity="0"/><stop offset=".5"/><stop offset="1" stop-opacity="0"/></linearGradient><path d="m7.85 43h32.299999v3h-32.299999z" fill="url(#L)" opacity=".402062"/><path d="m7.85 43.000131v2.999834c-1.1788976.005624-2.85-.672111-2.85-1.50011s1.3155607-1.499723 2.85-1.499724z" fill="url(#I)" opacity=".402062"/><path d="m40.15 43.000131v2.999834c1.178897.0056 2.85-.672111 2.85-1.50011s-1.315561-1.499723-2.85-1.499724z" fill="url(#K)" opacity=".402062"/><g stroke-linecap="round" stroke-linejoin="round"><path d="m7.5 3.4999988c8.522149.00514 24.477853-.00514 33 0 .07503 1.6057907.92418 38.1983792.999236 41.0000002-11.666411-.007035-23.332822-.014082-34.999236-.021121.09181-3.1471.9081898-39.5667186 1-40.9788792z" fill="url(#v)" stroke="url(#w)"/><path d="m12.687579 4.2498875-.437579 39.5001115" fill="#80b3ff" fill-rule="evenodd" opacity=".590698" stroke="#f6abab" stroke-width=".5"/><path d="m40.057439 9.8749988-32.1802878-.184532" fill="#80b3ff" fill-rule="evenodd" opacity=".437209" stroke="#80b3ff" stroke-width=".25"/><path d="m40.131449 11.874999-32.2629028-.184535" fill="#80b3ff" fill-rule="evenodd" opacity=".437209" stroke="#80b3ff" stroke-width=".25"/><path d="m40.214067 13.874999-32.4281375-.184531" fill="#80b3ff" fill-rule="evenodd" opacity=".437209" stroke="#80b3ff" stroke-width=".25"/><path d="m40.296684 15.874999-32.5933696-.184533" fill="#80b3ff" fill-rule="evenodd" opacity=".437209" stroke="#80b3ff" stroke-width=".25"/><path d="m40.296685 17.874999-32.5933712-.184533" fill="#80b3ff" fill-rule="evenodd" opacity=".437209" stroke="#80b3ff" stroke-width=".25"/><path d="m40.379302 19.874999-32.7586047-.184534" fill="#80b3ff" fill-rule="evenodd" opacity=".437209" stroke="#80b3ff" stroke-width=".25"/><path d="m40.379302 21.874999-32.7586046-.184532" fill="#80b3ff" fill-rule="evenodd" opacity=".437209" stroke="#80b3ff" stroke-width=".25"/><path d="m40.461915 23.874999-32.923834-.184533" fill="#80b3ff" fill-rule="evenodd" opacity=".437209" stroke="#80b3ff" stroke-width=".25"/><path d="m40.461913 25.874999-32.9238309-.184533" fill="#80b3ff" fill-rule="evenodd" opacity=".437209" stroke="#80b3ff" stroke-width=".25"/><path d="m40.627148 27.874999-33.2542979-.18453" fill="#80b3ff" fill-rule="evenodd" opacity=".437209" stroke="#80b3ff" stroke-width=".25"/><path d="m40.627148 29.864131-33.2542983-.184534" fill="#80b3ff" fill-rule="evenodd" opacity=".437209" stroke="#80b3ff" stroke-width=".25"/><path d="m40.874996 31.874999-33.749995-.184533" fill="#80b3ff" fill-rule="evenodd" opacity=".437209" stroke="#80b3ff" stroke-width=".25"/><path d="m40.874996 33.830428-33.749995-.184534" fill="#80b3ff" fill-rule="evenodd" opacity=".437209" stroke="#80b3ff" stroke-width=".25"/><path d="m40.874995 35.813576-33.7499933-.184532" fill="#80b3ff" fill-rule="evenodd" opacity=".437209" stroke="#80b3ff" stroke-width=".25"/><path d="m40.874996 37.796724-33.7499951-.184536" fill="#80b3ff" fill-rule="evenodd" opacity=".437209" stroke="#80b3ff" stroke-width=".25"/><path d="m40.874995 39.779873-33.7499932-.184534" fill="#80b3ff" fill-rule="evenodd" opacity=".437209" stroke="#80b3ff" stroke-width=".25"/><path d="m40.874995 41.874999-33.7499934-.184533" fill="#80b3ff" fill-rule="evenodd" opacity=".437209" stroke="#80b3ff" stroke-width=".25"/><path d="m35.25 4.1672721 1.049508 39.5001109" fill="none" opacity=".590698" stroke="#b9d5ff" stroke-width=".5"/></g><path d="m13 23.092695h2.345838v.907304h-2.345838z" fill="url(#k)" opacity=".7"/><path d="m15.665379 23.092695h2.213403v.907304h-2.213403z" fill="url(#u)" opacity=".7"/><path d="m18.198323 23.092695h1.948514v.907304h-1.948514z" fill="url(#u)" opacity=".7"/><path d="m20.466379 23.092695h.855871v.907304h-.855871z" fill="url(#u)" opacity=".7"/><path d="m21.641801 23.092695h1.915398v.907304h-1.915398z" fill="url(#u)" opacity=".7"/><path d="m23.87675 23.092695h4.961553v.907304h-4.961553z" fill="url(#u)" opacity=".7"/><path d="m29.157844 23.092695h3.769581v.907304h-3.769581z" fill="url(#u)" opacity=".7"/><path d="m13 29.092695h3.691817v.907304h-3.691817z" fill="url(#j)" opacity=".7"/><path d="m16.965761 29.092695h1.776154v.907304h-1.776154z" fill="url(#t)" opacity=".7"/><path d="m19.116681 29.092695h.835125v.907304h-.835125z" fill="url(#t)" opacity=".7"/><path d="m20.158533 29.092695h1.608114v.907304h-1.608114z" fill="url(#t)" opacity=".7"/><path d="m22.040581 29.092695h1.608115v.907304h-1.608115z" fill="url(#t)" opacity=".7"/><path d="m24.157898 29.092695h2.582748v.907304h-2.582748z" fill="url(#t)" opacity=".7"/><path d="m27.048194 29.092695h3.389342v.907304h-3.389342z" fill="url(#t)" opacity=".7"/><path d="m30.913123 29.092695h2.280283v.907304h-2.280283z" fill="url(#h)" opacity=".7"/><path d="m33.467341 29.092695h.532659v.907304h-.532659z" fill="url(#t)" opacity=".7"/><path d="m13 25.092695h3.928045v.907304h-3.928045z" fill="url(#s)" opacity=".7"/><path d="m17.235965 25.092695h4.208949v.907304h-4.208949z" fill="url(#s)" opacity=".7"/><path d="m21.752834 25.092695h1.680758v.907304h-1.680758z" fill="url(#s)" opacity=".7"/><path d="m23.741512 25.092695h3.959254v.907304h-3.959254z" fill="url(#s)" opacity=".7"/><path d="m28.008686 25.092695h2.710758v.907304h-2.710758z" fill="url(#s)" opacity=".7"/><path d="m13 27.086712h4.28514v.907304h-4.28514z" fill="url(#g)" opacity=".7"/><path d="m17.621053 27.086712h4.59158v.907304h-4.59158z" fill="url(#r)" opacity=".7"/><path d="m22.548546 27.086712h1.833555v.907304h-1.833555z" fill="url(#r)" opacity=".7"/><path d="m24.718014 27.086712h4.319185v.907304h-4.319185z" fill="url(#r)" opacity=".7"/><path d="m29.373112 27.086712h2.95719v.907304h-2.95719z" fill="url(#r)" opacity=".7"/><path d="m13 11.092695h2.345838v.907304h-2.345838z" fill="url(#q)" opacity=".7"/><path d="m15.665379 11.092695h2.213403v.907304h-2.213403z" fill="url(#q)" opacity=".7"/><path d="m18.198323 11.092695h1.948514v.907304h-1.948514z" fill="url(#f)" opacity=".7"/><path d="m20.466379 11.092695h.855871v.907304h-.855871z" fill="url(#q)" opacity=".7"/><path d="m21.641801 11.092695h1.915398v.907304h-1.915398z" fill="url(#q)" opacity=".7"/><path d="m23.87675 11.092695h4.961553v.907304h-4.961553z" fill="url(#q)" opacity=".7"/><path d="m29.157844 11.092695h3.769581v.907304h-3.769581z" fill="url(#q)" opacity=".7"/><path d="m33.246977 11.092695h1.153856v.907304h-1.153856z" fill="url(#q)" opacity=".7"/><path d="m13 13.092696h3.691819v.907303h-3.691819z" fill="url(#p)" opacity=".7"/><path d="m17.028777 13.092696h1.776155v.907303h-1.776155z" fill="url(#d)" opacity=".7"/><path d="m19.14189 13.092696h.835125v.907303h-.835125z" fill="url(#p)" opacity=".7"/><path d="m20.313973 13.092696h1.608115v.907303h-1.608115z" fill="url(#p)" opacity=".7"/><path d="m22.259036 13.092696h1.608116v.907303h-1.608116z" fill="url(#p)" opacity=".7"/><path d="m24.20411 13.092696h2.582749v.907303h-2.582749z" fill="url(#p)" opacity=".7"/><path d="m27.123807 13.092696h3.389353v.907303h-3.389353z" fill="url(#p)" opacity=".7"/><path d="m13 17.092696h4.28514v.907303h-4.28514z" fill="url(#o)" opacity=".7"/><path d="m17.621053 17.092696h4.59158v.907303h-4.59158z" fill="url(#o)" opacity=".7"/><path d="m22.548546 17.092696h1.833555v.907303h-1.833555z" fill="url(#o)" opacity=".7"/><path d="m24.718014 17.092696h4.319185v.907303h-4.319185z" fill="url(#o)" opacity=".7"/><path d="m32.666215 17.092696h1.152552v.907303h-1.152552z" fill="url(#o)" opacity=".7"/><path d="m29.373112 17.092696h2.95719v.907303h-2.95719z" fill="url(#o)" opacity=".7"/><path d="m34.15468 17.092696h.675853v.907303h-.675853z" fill="url(#o)" opacity=".7"/><path d="m13 15.092696h3.061572v.907303h-3.061572z" fill="url(#n)" opacity=".7"/><path d="m16.38681 15.092696h5.083544v.907303h-5.083544z" fill="url(#n)" opacity=".7"/><path d="m21.795592 15.092696h2.454976v.907303h-2.454976z" fill="url(#n)" opacity=".7"/><path d="m27.187522 15.092696h1.949485v.907303h-1.949485z" fill="url(#n)" opacity=".7"/><path d="m29.462245 15.092696h3.128973v.907303h-3.128973z" fill="url(#n)" opacity=".7"/><path d="m24.575806 15.092696h2.286488v.907303h-2.286488z" fill="url(#n)" opacity=".7"/><path d="m13 19.092696h1.633355v.907303h-1.633355z" fill="url(#m)" opacity=".7"/><path d="m15.056056 19.092696h5.943944v.907303h-5.943944z" fill="url(#m)" opacity=".7"/><path d="m13 35.092696h3.691817v.907303h-3.691817z" fill="url(#l)" opacity=".7"/><path d="m16.965761 35.092696h1.776154v.907303h-1.776154z" fill="url(#l)" opacity=".7"/><path d="m19.116681 35.092696h.835125v.907303h-.835125z" fill="url(#l)" opacity=".7"/><path d="m20.158533 35.092696h1.608114v.907303h-1.608114z" fill="url(#l)" opacity=".7"/><path d="m22.040581 35.092696h1.608115v.907303h-1.608115z" fill="url(#l)" opacity=".7"/><path d="m24.157898 35.092696h2.582748v.907303h-2.582748z" fill="url(#l)" opacity=".7"/><path d="m27.048194 35.092696h3.389342v.907303h-3.389342z" fill="url(#l)" opacity=".7"/><path d="m30.913123 35.092696h2.280283v.907303h-2.280283z" fill="url(#l)" opacity=".7"/><path d="m33.467341 35.092696h.532659v.907303h-.532659z" fill="url(#l)" opacity=".7"/><path d="m13 33.092696h3.061572v.907303h-3.061572z" fill="url(#i)" opacity=".7"/><path d="m16.38681 33.092696h5.083544v.907303h-5.083544z" fill="url(#i)" opacity=".7"/><path d="m21.795592 33.092696h2.454976v.907303h-2.454976z" fill="url(#i)" opacity=".7"/><path d="m27.187522 33.092696h1.949485v.907303h-1.949485z" fill="url(#i)" opacity=".7"/><path d="m29.462245 33.092696h3.128973v.907303h-3.128973z" fill="url(#i)" opacity=".7"/><path d="m32.916446 33.092696h5.083554v.907303h-5.083554z" fill="url(#i)" opacity=".7"/><path d="m24.575806 33.092696h2.286488v.907303h-2.286488z" fill="url(#i)" opacity=".7"/><path d="m13 37.092695h3.868703v.907304h-3.868703z" fill="url(#e)" opacity=".7"/><path d="m17.188155 37.092695h1.218185v.907304h-1.218185z" fill="url(#e)" opacity=".7"/><path d="m18.725792 37.092695h2.781317v.907304h-2.781317z" fill="url(#e)" opacity=".7"/><path d="m21.826561 37.092695h1.89781v.907304h-1.89781z" fill="url(#e)" opacity=".7"/><path d="m24.043823 37.092695h1.8978v.907304h-1.8978z" fill="url(#e)" opacity=".7"/><path d="m26.261086 37.092695h2.747329v.907304h-2.747329z" fill="url(#e)" opacity=".7"/><path d="m29.327857 37.092695h.572556v.907304h-.572556z" fill="url(#e)" opacity=".7"/><path d="m30.219865 37.092695h3.562873v.907304h-3.562873z" fill="url(#e)" opacity=".7"/><path d="m34.10219 37.092695h1.89781v.907304h-1.89781z" fill="url(#e)" opacity=".7"/><path d="m13 39.092696h3.796419v.907303h-3.796419z" fill="url(#a)" opacity=".7"/><path d="m19.256706 39.092696h2.438723v.907303h-2.438723z" fill="url(#a)" opacity=".7"/><path d="m17.146622 39.092696h1.759881v.907303h-1.759881z" fill="url(#a)" opacity=".7"/><path d="m38.469055 23.944499c-.173257-.101989-.307317-.07546-.395883-.01871l-11.796108 7.511424-2.17105 1.386355-.06684.02805-2.570398 5.792049 6.370142.191869.05288-.03539 2.18501-1.379007 11.793169-7.576206c.354271-.226993-.206018-1.731414-1.256855-3.380625-.788131-1.236902-1.624293-2.213844-2.144067-2.519809z" fill="#0c0c0c" fill-rule="evenodd" opacity=".15"/><path d="m24.934095 31.028461c.445921-.334616 1.697104.293067 2.846888 1.43713 1.147034 1.141326 1.75142 2.362602 1.42438 2.812888-.0012.0017.02814.02504.02686.02673l16.010045-16.088526c.406482-.408475-.225083-1.699306-1.411369-2.879688-1.186282-1.180382-2.480279-1.805536-2.886764-1.397059z" fill="url(#x)" stroke="#0c0c0c" stroke-linejoin="round" stroke-width=".5"/><path d="m38.990234 16.903417c.445921-.334616 1.697105.293068 2.846888 1.43713 1.147033 1.141325 1.75142 2.362602 1.424379 2.812887-.0012.0017.02814.02504.02686.02673l1.953903-1.963482.03988-.04007c.0013-.0017-.02811-.02502-.02686-.02673.327036-.450285-.277352-1.671561-1.424385-2.812886-1.149782-1.144062-2.400965-1.771747-2.846887-1.43713l-.03988.04007-1.953901 1.963481z" fill="#ffb6ed" opacity=".8" stroke="#e28ccd" stroke-linejoin="round" stroke-width=".5"/><path d="m24.934095 31.028459c.445921-.334616 1.697105.293068 2.846887 1.43713 1.147034 1.141326 1.751421 2.362602 1.42438 2.812888-.0012.0017.02814.02504.02687.02673l11.025592-11.079643.03988-.04007c.0013-.0017-.02811-.02502-.02686-.02673.327034-.450289-.277353-1.671564-1.424386-2.81289-1.149783-1.144062-2.400968-1.771746-2.846889-1.437129l-.03988.04007-11.025589 11.079644z" fill="#0c0c0c" opacity=".6"/><path d="m36.800145 19.10424c.44592-.334617 1.697106.293068 2.846888 1.43713 1.147033 1.141325 1.751421 2.362601 1.424379 2.812888-.0012.0017.02814.02504.02686.02673l.199378-.200358c.0013-.0017-.02811-.02502-.02686-.02673.327042-.450286-.277346-1.671563-1.42438-2.812886-1.149782-1.144063-2.400967-1.771747-2.846887-1.437131l-.199378.200356z" fill="url(#y)"/><path d="m36.617427 19.287853c.445922-.334617 1.697107.293067 2.846888 1.437129 1.147035 1.141326 1.751422 2.362601 1.42438 2.812887-.0012.0017.02813.02504.02686.02673l.199377-.200357c.0013-.0017-.02811-.02502-.02686-.02673.327044-.450285-.277344-1.671561-1.424379-2.812886-1.149782-1.144062-2.400966-1.771747-2.846889-1.43713l-.199377.200356z" fill="url(#A)"/><path d="m37.435085 18.466187c.445921-.334617 1.697105.293067 2.846888 1.43713 1.147033 1.141325 1.751421 2.3626 1.42438 2.812887-.0012.0017.02813.02504.02686.02673l.199378-.200355c.0013-.0017-.02811-.02502-.02686-.02673.327041-.450286-.277346-1.671563-1.424381-2.812887-1.149782-1.144063-2.400964-1.771747-2.846888-1.43713z" fill="url(#C)"/><path d="m37.252367 18.6498c.445923-.334617 1.697107.293067 2.846888 1.437129 1.147035 1.141326 1.751422 2.362601 1.424381 2.812887-.0012.0017.02814.02504.02686.02673l.199377-.200356c.0013-.0017-.02811-.02502-.02686-.02673.327042-.450286-.277345-1.671563-1.424379-2.812886-1.149781-1.144063-2.400966-1.771748-2.846889-1.43713z" fill="url(#D)"/><path d="m38.073095 17.82505c.44592-.334616 1.697104.293068 2.846887 1.43713 1.147033 1.141325 1.751421 2.362601 1.42438 2.812887-.0012.0017.02813.02504.02686.02673l.199376-.200356c.0013-.0017-.02811-.02502-.02686-.02673.327042-.450285-.277346-1.671562-1.42438-2.812887-1.14978-1.144062-2.400965-1.771747-2.846887-1.437129l-.199377.200355z" fill="url(#E)"/><path d="m37.890378 18.008663c.445919-.334617 1.697105.293067 2.846887 1.437131 1.147033 1.141324 1.751422 2.3626 1.424379 2.812885-.0012.0017.02814.02504.02686.02673l.199378-.200354c.0013-.0017-.02811-.02502-.02686-.02673.327042-.450287-.277346-1.671563-1.424379-2.812887-1.149782-1.144063-2.400967-1.771748-2.846888-1.43713z" fill="url(#F)"/><path d="m21.865994 38.310367 7.283734-2.970838.06206-.06205c.327041-.450289-.285228-1.67166-1.432262-2.812988-1.149783-1.144062-2.399488-1.768277-2.845409-1.43366l-3.068118 7.279536z" fill="url(#G)" fill-rule="evenodd" stroke="url(#H)" stroke-width=".5"/><path d="m22.697063 36.338766-.831516 1.96381 1.986639-.814434c-.159226-.190724-.306218-.384443-.497391-.574664-.220091-.218997-.436571-.396687-.657732-.574712z" fill="#0c0c0c" fill-rule="evenodd" stroke="#0c0c0c" stroke-width=".5"/></svg>